# xmcd
#
# Track frame offsets:
# 150
# 10860
# 22710
# 33547
# 42400
# 55532
# 64717
# 77905
# 90040
# 101197
# 112537
# 127500
# 141937
# 158817
# 169687
# 180575
# 192107
# 203017
# 218655
# 231002
# 240882
# 250792
#
# Disc length: 3486 seconds
#
#
# Revision: 0
# Processed by: cddbd v1.4PL0 Copyright (c) Steve Scherf et al.
# Submitted via: FreeRIP 2.30 
#
DISCID=fd0d9c16
DTITLE=James Carr - You Got My Mind Messed Up
DYEAR=1900
DGENRE=R&B
TTITLE0=She's Better Than You
TTITLE1=You Don't Want Me
TTITLE2=You've Got My Mind Messed Up
TTITLE3=That's What I Want To Know
TTITLE4=Love Attack
TTITLE5=Coming Back To Me Baby
TTITLE6=Forgetting You
TTITLE7=Pouring Water On A Drowning Man
TTITLE8=Lovable Girl
TTITLE9=These Ain't Raindrops
TTITLE10=To Love Somebody
TTITLE11=Who's Been Warming My Oven
TTITLE12=Please Your Woman
TTITLE13=I Don't Want To Be Hurt Anymore
TTITLE14=I'me Going For Myself
TTITLE15=The Dark End Of The Street
TTITLE16=Let It Happen
TTITLE17=My Adorable One
TTITLE18=Everybody Needs Somebody
TTITLE19=Row Row Row Your Boat
TTITLE20=What The World Needs Now Is Love
TTITLE21=I've Gotta Go
EXTD=
EXTT0=
EXTT1=
EXTT2=
EXTT3=
EXTT4=
EXTT5=
EXTT6=
EXTT7=
EXTT8=
EXTT9=
EXTT10=
EXTT11=
EXTT12=
EXTT13=
EXTT14=
EXTT15=
EXTT16=
EXTT17=
EXTT18=
EXTT19=
EXTT20=
EXTT21=
PLAYORDER=
